<?xml version="1.0" encoding="utf-8"?>
<!-- Generator: Adobe Illustrator 26.0.1, SVG Export Plug-In . SVG Version: 6.00 Build 0)  -->
<svg version="1.1" id="Layer_1" xmlns="http://www.w3.org/2000/svg" xmlns:xlink="http://www.w3.org/1999/xlink" x="0px" y="0px"
	 viewBox="0 0 841.9 595.3" style="enable-background:new 0 0 841.9 595.3;" xml:space="preserve">
<style type="text/css">
	.st0{fill:none;stroke:#000000;stroke-width:5;stroke-linecap:round;stroke-linejoin:round;stroke-miterlimit:7.0312;}
</style>
<path class="st0" d="M659.3,228.5l-17.9,18"/>
<path class="st0" d="M440.6,253c0,0,22.1-13.6,41.4-36.2c0,0-55.2,84.6-44.1,85.6c11.1,0.9,50.2-24.6,50.2-24.6s-21.5,23.8-11.3,22
	c10.2-1.8,42.2-23.9,42.2-23.9s-9.5,15.5-2.8,15.4c6.7-0.1,13.7-9.5,13.8-14.7c0,0,13-1.1,26.1-8.5c0,0-11.3,19.4-4.4,16.5
	c6.9-2.9,24.5-17.3,24.5-17.3s-10.6,16.1-3,13.2c7.6-2.8,20.1-15.5,20.1-15.5s-9.5,14.2-0.7,13.9c8.8-0.3,27.7-7.8,36.8-15.5
	c9.2-7.6,4.5-14.5-6.4-3c-11,11.4-17,22.4,40.6,4.8c57.7-17.6,169.5-49.8,152.6-23.7"/>
<path class="st0" d="M447.4,213.9l-52.5,97.6c0,0,27.5-70.5-4.5-90.2c-41.4-25.5-186.6,1.4-186.6,1.4l423.1-61.9
	c0,0-17.1,3.3-29.1,15.4"/>
<path class="st0" d="M377.6,228c-1.4,3.6-45.7,74-45.7,74l31.7-51c0,0,5.6-22.3-36.6,34.6c-42.2,56.9-83.6,117.7-45.6,100.3
	c15-6.9,162.5-56.3,152.6-40.8"/>
<path class="st0" d="M293.8,295.7c48.9-69.9,41-88.2-21.8-40.5s-150.9,134.9-4.9,64.2l12.2-5.6l6.3-8.4l-59.1,100.5
	c0,0,2.1-16.9-53.5-21.8c-51.8-4.5-146.3,4.9-146.3,4.9L794.4,261c0,0-14.8-0.5-21.4,14.2"/>
</svg>
