<?xml version="1.0" encoding="utf-8"?>
<!-- Generator: Adobe Illustrator 26.0.1, SVG Export Plug-In . SVG Version: 6.00 Build 0)  -->
<svg version="1.1" id="Layer_1" xmlns="http://www.w3.org/2000/svg" xmlns:xlink="http://www.w3.org/1999/xlink" x="0px" y="0px"
	 viewBox="0 0 841.9 595.3" style="enable-background:new 0 0 841.9 595.3;" xml:space="preserve">
<style type="text/css">
	.st0{fill:none;stroke:#000000;stroke-width:5;stroke-linecap:round;stroke-linejoin:round;stroke-miterlimit:7.0312;}
</style>
<path class="st0" d="M594,180.1l-81.9,146.5c0,0,51.4-91.8,11.7-121.2s-95.8-19-230.7-1.6l504.9-74.4c0,0-42.8,21.4-57.4,41.8"/>
<path class="st0" d="M491.2,207.1L438,310.5l43.6-84.7c0,0,3.8-13.6-29.7,27.7c-33.5,41.3-98.1,115.5-85,115
	C380,368,742,307.7,742,307.7s-9.9,0.8-13.8,15.2"/>
<path class="st0" d="M393.5,293.6c62.6-71.8,63.9-122.4-38.4-45.6c-93.1,69.9-153.6,122.8-65,96.7c8.8-2.6,19-5.8,30.8-10.1
	c50.9-18.6,51.6-28.8,51.6-28.8l-71.1,133.6c0,0,14.5-36.6-95.6-33.3c-110,3.3-153.8,7.6-153.8,7.6l260.6-45.2"/>
</svg>
